<svg width="13" height="16" viewBox="0 0 13 16" fill="none" xmlns="http://www.w3.org/2000/svg">
<path d="M6.49937 4.8149C5.91537 4.8149 5.01137 4.1509 4.05937 4.1749C2.80337 4.1909 1.65137 4.90289 1.00337 6.03089C-0.300626 8.29489 0.667374 11.6389 1.93937 13.4789C2.56337 14.3749 3.29937 15.3829 4.27537 15.3509C5.21137 15.3109 5.56337 14.7429 6.69937 14.7429C7.82737 14.7429 8.14737 15.3509 9.13937 15.3269C10.1474 15.3109 10.7874 14.4149 11.4034 13.5109C12.1154 12.4709 12.4114 11.4629 12.4274 11.4069C12.4034 11.3989 10.4674 10.6549 10.4434 8.4149C10.4274 6.54289 11.9714 5.64689 12.0434 5.60689C11.1634 4.31889 9.81137 4.1749 9.33937 4.1429C8.10737 4.0469 7.07537 4.8149 6.49937 4.8149ZM8.57937 2.92689C9.09937 2.30289 9.44337 1.43089 9.34737 0.566895C8.60337 0.598895 7.70737 1.06289 7.17137 1.68689C6.69137 2.23889 6.27537 3.12689 6.38737 3.9749C7.21137 4.03889 8.05937 3.55089 8.57937 2.92689Z" fill="#295CCF"/>
</svg>
