<svg width="48" height="48" viewBox="0 0 48 48" fill="none" xmlns="http://www.w3.org/2000/svg">
<rect width="48" height="48" rx="24" fill="#F4F9FF"/>
<path d="M23.9996 29C27.6616 29 30.8646 30.575 32.6066 32.925L30.7646 33.796C29.3466 32.116 26.8466 31 23.9996 31C21.1526 31 18.6526 32.116 17.2346 33.796L15.3936 32.924C17.1356 30.574 20.3376 29 23.9996 29ZM23.9996 14C25.3256 14 26.5974 14.5268 27.5351 15.4645C28.4728 16.4021 28.9996 17.6739 28.9996 19V22C28.9995 23.2885 28.502 24.5272 27.6109 25.4578C26.7198 26.3884 25.5038 26.9391 24.2166 26.995L23.9996 27C22.6735 27 21.4017 26.4732 20.464 25.5355C19.5263 24.5979 18.9996 23.3261 18.9996 22V19C18.9996 17.7115 19.4971 16.4728 20.3882 15.5422C21.2793 14.6116 22.4953 14.0609 23.7826 14.005L23.9996 14ZM23.9996 16C23.2343 16 22.498 16.2923 21.9413 16.8173C21.3845 17.3422 21.0494 18.0601 21.0046 18.824L20.9996 19V22C20.9988 22.7809 21.3026 23.5313 21.8463 24.0918C22.3901 24.6523 23.1309 24.9787 23.9115 25.0016C24.6921 25.0245 25.4508 24.7422 26.0265 24.2145C26.6022 23.6869 26.9495 22.9556 26.9946 22.176L26.9996 22V19C26.9996 18.2044 26.6835 17.4413 26.1209 16.8787C25.5583 16.3161 24.7952 16 23.9996 16Z" fill="#3E75F2"/>
</svg>
