<svg width="16" height="16" viewBox="0 0 16 16" fill="none" xmlns="http://www.w3.org/2000/svg">
<path d="M6.66602 9.78397V9.74263C6.66602 8.07063 8.01002 6.66397 9.83468 6.25397C9.59202 4.7193 7.97202 3.46663 5.93268 3.46663C3.71935 3.46663 1.99935 4.94197 1.99935 6.6533C1.99935 7.2993 2.23935 7.91997 2.69268 8.45197C2.71402 8.4773 2.74802 8.51463 2.79402 8.56197C3.18595 8.96477 3.4226 9.49334 3.46202 10.054C3.93808 9.77876 4.494 9.67477 5.03735 9.7593C5.14802 9.77663 5.23868 9.78997 5.30735 9.7993C5.75873 9.85793 6.21614 9.85255 6.66602 9.7833V9.78397ZM6.97068 11.0846C6.3642 11.1888 5.74551 11.2011 5.13535 11.1213C5.03428 11.1076 4.93339 11.0927 4.83268 11.0766C4.58353 11.0378 4.32867 11.0878 4.11268 11.218L2.84335 11.9833C2.74559 12.0435 2.63111 12.0709 2.51668 12.0613C2.44748 12.0561 2.37998 12.0372 2.31807 12.0059C2.25616 11.9745 2.20105 11.9312 2.1559 11.8785C2.11075 11.8258 2.07645 11.7647 2.05496 11.6987C2.03347 11.6327 2.02522 11.5632 2.03068 11.494L2.13068 10.3066C2.14314 10.1577 2.12346 10.0078 2.07297 9.86716C2.02247 9.72649 1.94235 9.59831 1.83802 9.4913C1.7826 9.43482 1.72902 9.37656 1.67735 9.31663C1.04135 8.56997 0.666016 7.64863 0.666016 6.65263C0.666016 4.15663 3.02402 2.1333 5.93268 2.1333C8.63935 2.1333 10.868 3.88463 11.166 6.13863C13.414 6.24063 15.1993 7.8153 15.1993 9.74263C15.1993 10.538 14.8953 11.2733 14.38 11.8693C14.346 11.9093 14.3027 11.956 14.25 12.0093C14.1658 12.0941 14.1009 12.1962 14.0599 12.3086C14.0189 12.4209 14.0028 12.5408 14.0127 12.66L14.0933 13.6086C14.0974 13.6643 14.0905 13.7201 14.0729 13.7731C14.0553 13.826 14.0275 13.8749 13.9909 13.9171C13.9544 13.9592 13.9098 13.9937 13.8599 14.0185C13.81 14.0434 13.7557 14.0582 13.7 14.062C13.6074 14.0696 13.5147 14.0476 13.4353 13.9993L12.4067 13.388C12.2313 13.2842 12.0254 13.2444 11.824 13.2753C11.726 13.2906 11.644 13.302 11.5787 13.3106C11.368 13.3373 11.152 13.352 10.9327 13.352C9.13668 13.352 7.60068 12.4133 6.97068 11.0846ZM11.622 11.958C11.9982 11.9001 12.383 11.94 12.7393 12.074C12.8328 11.6959 13.0265 11.3499 13.3 11.0726C13.3333 11.0393 13.358 11.0126 13.3707 10.998C13.6967 10.6213 13.866 10.1893 13.866 9.74263C13.866 8.53997 12.5973 7.46663 10.9327 7.46663C9.26802 7.46663 7.99935 8.53997 7.99935 9.74263C7.99935 10.9453 9.26802 12.0186 10.9327 12.0186C11.0933 12.0186 11.2527 12.008 11.4087 11.988C11.462 11.9813 11.534 11.9713 11.622 11.9573V11.958Z" fill="white"/>
</svg>
