<svg width="24" height="24" viewBox="0 0 24 24" fill="none" xmlns="http://www.w3.org/2000/svg">
<path d="M5.62422 21.0312C6.78672 16.2087 5.40672 16.0437 5.40672 13.7037C5.40672 12.9237 6.02172 11.0562 6.11172 10.1487C6.32172 8.06365 5.80422 8.61865 7.32672 7.07365L7.41672 4.92865C8.18172 4.19365 8.56422 3.53365 9.50172 3.76615C10.0717 5.46115 8.99172 4.92865 8.88672 6.90865C9.52422 7.75615 9.95172 7.83865 10.4317 8.90365C11.0392 10.2537 10.6042 10.2387 11.7517 11.3712C13.4392 11.5662 14.4592 11.5737 15.6667 10.3587C15.7942 9.06115 15.0442 9.17365 15.8092 7.98115C16.3342 7.16365 16.8517 6.72115 17.8342 7.05115C18.1567 8.32615 16.7092 8.58865 17.1592 10.0062C19.1017 10.2012 19.5517 7.52365 21.0367 7.38865C21.0367 10.2462 18.0517 10.6212 17.9842 12.9462C17.9392 14.4012 19.2292 18.4062 20.5342 19.2612C21.6817 17.4987 22.9192 15.5787 23.0617 13.4487C24.0592 -1.08635 4.82922 -3.73385 1.17672 8.99365C0.989219 9.64615 0.876719 10.3062 0.824219 10.9662V12.6537C1.14672 16.8387 3.72672 20.5137 5.62422 21.0312Z" fill="#EF4635"/>
<path d="M11.2495 22.9813C16.447 23.5963 15.8995 21.9913 14.872 16.0738C14.467 13.7413 13.9945 12.5113 11.227 12.7288C9.50199 14.7763 10.372 18.7663 10.432 20.5138C10.477 21.8938 10.2445 21.9838 11.2495 22.9813ZM17.227 21.5563C18.097 21.4513 18.247 21.2713 18.952 20.7088C19.0645 19.5163 18.247 17.5963 16.972 17.2138C16.372 18.3688 16.5445 20.4238 17.227 21.5563ZM8.66199 22.5463C8.66199 21.0913 8.84199 18.0838 8.09199 17.0488C7.09449 17.3413 7.40199 18.1963 7.39449 20.0188C7.38699 21.3538 7.13949 22.4113 8.66199 22.5463Z" fill="#EF4635"/>
</svg>
