<svg width="42" height="60" viewBox="0 0 42 60" fill="none" xmlns="http://www.w3.org/2000/svg">
<path d="M6 6V54H36V6H6ZM3 0H39C39.7957 0 40.5587 0.31607 41.1213 0.87868C41.6839 1.44129 42 2.20435 42 3V57C42 57.7957 41.6839 58.5587 41.1213 59.1213C40.5587 59.6839 39.7957 60 39 60H3C2.20435 60 1.44129 59.6839 0.87868 59.1213C0.316071 58.5587 0 57.7957 0 57V3C0 2.20435 0.316071 1.44129 0.87868 0.87868C1.44129 0.31607 2.20435 0 3 0ZM21 45C21.7956 45 22.5587 45.3161 23.1213 45.8787C23.6839 46.4413 24 47.2043 24 48C24 48.7957 23.6839 49.5587 23.1213 50.1213C22.5587 50.6839 21.7956 51 21 51C20.2044 51 19.4413 50.6839 18.8787 50.1213C18.3161 49.5587 18 48.7957 18 48C18 47.2043 18.3161 46.4413 18.8787 45.8787C19.4413 45.3161 20.2044 45 21 45Z" fill="#27A075"/>
</svg>
