<svg width="13" height="14" viewBox="0 0 13 14" fill="none" xmlns="http://www.w3.org/2000/svg">
<path d="M0.656001 0.209473L7.44467 7.00014L0.656668 13.7908C0.535961 13.7401 0.432953 13.6548 0.360595 13.5456C0.288237 13.4365 0.249759 13.3084 0.250001 13.1775V0.822806C0.250052 0.69202 0.288571 0.564138 0.360762 0.455081C0.432953 0.346024 0.535627 0.26061 0.656001 0.209473ZM7.916 7.47147L9.45067 9.00614L2.15933 13.2281L7.916 7.47147ZM10.0487 5.33947L11.92 6.42347C12.021 6.48208 12.1049 6.56619 12.1632 6.6674C12.2215 6.7686 12.2522 6.88335 12.2522 7.00014C12.2522 7.11693 12.2215 7.23168 12.1632 7.33288C12.1049 7.43409 12.021 7.5182 11.92 7.57681L10.048 8.66081L8.38733 7.00014L10.0487 5.33947ZM2.15933 0.772139L9.45133 4.99347L7.916 6.52881L2.15933 0.772139Z" fill="#295CCF"/>
</svg>
