<svg width="24" height="24" viewBox="0 0 24 24" fill="none" xmlns="http://www.w3.org/2000/svg">
<path d="M18.1231 14.7158C18.4818 14.8538 18.6198 15.3912 18.6473 15.6256C18.7026 16.0534 18.5787 16.2188 18.4407 16.2188C18.3027 16.2188 18.1094 16.0534 17.9028 15.7225C17.6958 15.3912 17.6131 15.0192 17.7237 14.8259C17.7923 14.7016 17.9436 14.6468 18.1231 14.7158ZM16.0274 16.2741C16.2481 16.2741 16.4963 16.3705 16.717 16.5634C17.1443 16.9221 17.2686 17.3356 17.0478 17.6391C16.9236 17.7908 16.717 17.8872 16.4826 17.8872C16.2481 17.8872 16 17.8045 15.8346 17.6528C15.4484 17.3219 15.3383 16.7699 15.586 16.4669C15.6828 16.3426 15.8346 16.2741 16.0274 16.2741ZM11.2017 20.2589C5.96156 20.2589 1.71484 16.0118 1.71484 10.7721C1.71484 5.53236 5.96199 1.28564 11.2013 1.28564C16.441 1.28564 20.6881 5.53279 20.6881 10.7721C20.6881 12.5506 20.1918 14.2195 19.351 15.6398C19.3231 15.6809 19.2541 15.6672 19.2404 15.6119C18.9096 13.2818 17.4893 11.9991 15.421 11.6134C15.2414 11.5855 15.214 11.4754 15.4484 11.4479C16.0827 11.3926 16.9788 11.4064 17.4477 11.4891C17.4751 11.2546 17.4893 11.0065 17.4893 10.7584C17.4893 7.29722 14.6761 4.48407 11.215 4.48407C7.75427 4.48407 4.94113 7.29722 4.94113 10.7584C4.94113 14.2195 7.75427 17.0326 11.2154 17.0326H11.5047C11.4064 16.4728 11.3648 15.9045 11.3804 15.3364C11.3946 14.9502 11.4773 14.8949 11.6427 15.1984C12.5114 16.7014 13.7526 18.0526 16.1791 18.5905C18.1647 19.0319 20.1503 19.5419 22.2876 22.2582C22.4804 22.4926 22.1911 22.7408 21.9704 22.5479C19.792 20.6172 17.8064 19.9829 16 19.9829C13.9728 19.9971 12.5946 20.2589 11.2017 20.2589Z" fill="#FF8C00"/>
</svg>
