<svg width="13" height="12" viewBox="0 0 13 12" fill="none" xmlns="http://www.w3.org/2000/svg">
<path d="M8.91667 9.33333V8.66667H6.91667V6.66667H8.91667V8H10.25V9.33333H9.58333V10.6667H8.25V12H6.91667V10H8.25V9.33333H8.91667ZM12.25 12H9.58333V10.6667H10.9167V9.33333H12.25V12ZM0.25 0H5.58333V5.33333H0.25V0ZM6.91667 0H12.25V5.33333H6.91667V0ZM0.25 6.66667H5.58333V12H0.25V6.66667ZM10.25 6.66667H12.25V8H10.25V6.66667ZM2.25 2V3.33333H3.58333V2H2.25ZM2.25 8.66667V10H3.58333V8.66667H2.25ZM8.91667 2V3.33333H10.25V2H8.91667Z" fill="#295CCF"/>
</svg>
