<svg width="16" height="16" viewBox="0 0 16 16" fill="none" xmlns="http://www.w3.org/2000/svg">
<path d="M7.99905 11.3335C10.4404 11.3335 12.5757 12.3835 13.7371 13.9502L12.5091 14.5308C11.5637 13.4108 9.89705 12.6668 7.99905 12.6668C6.10105 12.6668 4.43439 13.4108 3.48905 14.5308L2.26172 13.9495C3.42305 12.3828 5.55772 11.3335 7.99905 11.3335ZM7.99905 1.3335C8.88311 1.3335 9.73095 1.68469 10.3561 2.30981C10.9812 2.93493 11.3324 3.78277 11.3324 4.66683V6.66683C11.3323 7.5258 11.0007 8.3516 10.4066 8.97201C9.81253 9.59243 9.00188 9.95955 8.14372 9.99683L7.99905 10.0002C7.115 10.0002 6.26715 9.64897 5.64203 9.02385C5.01691 8.39873 4.66572 7.55088 4.66572 6.66683V4.66683C4.66577 3.80785 4.99741 2.98206 5.59149 2.36164C6.18557 1.74123 6.99622 1.37411 7.85438 1.33683L7.99905 1.3335ZM7.99905 2.66683C7.48891 2.6668 6.99804 2.86171 6.62688 3.21169C6.25571 3.56166 6.03231 4.04023 6.00239 4.5495L5.99905 4.66683V6.66683C5.99855 7.18743 6.20107 7.68772 6.56357 8.06137C6.92607 8.43503 7.41998 8.65262 7.94036 8.6679C8.46074 8.68317 8.96657 8.49494 9.35037 8.14319C9.73416 7.79144 9.96568 7.3039 9.99572 6.78416L9.99905 6.66683V4.66683C9.99905 4.1364 9.78834 3.62769 9.41327 3.25262C9.03819 2.87754 8.52948 2.66683 7.99905 2.66683Z" fill="white"/>
</svg>
